<mxfile host="Electron" modified="2024-03-09T14:20:00.625Z" agent="Mozilla/5.0 (Windows NT 10.0; Win64; x64) AppleWebKit/537.36 (KHTML, like Gecko) draw.io/22.1.2 Chrome/114.0.5735.289 Electron/25.9.4 Safari/537.36" etag="V-aaWA9Cq0E9526y6ZB7" version="22.1.2" type="device">
  <diagram id="R2lEEEUBdFMjLlhIrx00" name="Page-1">
    <mxGraphModel dx="3170" dy="2233" grid="1" gridSize="10" guides="1" tooltips="1" connect="1" arrows="1" fold="1" page="1" pageScale="1" pageWidth="850" pageHeight="1100" math="0" shadow="0" extFonts="Permanent Marker^https://fonts.googleapis.com/css?family=Permanent+Marker">
      <root>
        <mxCell id="0" />
        <mxCell id="1" parent="0" />
        <mxCell id="qU3MLYZs_xLxiEu93uZJ-1" value="" style="group" parent="1" vertex="1" connectable="0">
          <mxGeometry x="-780" y="110" width="299" height="132" as="geometry" />
        </mxCell>
        <mxCell id="qU3MLYZs_xLxiEu93uZJ-2" value="Customer" style="whiteSpace=wrap;html=1;align=center;" parent="qU3MLYZs_xLxiEu93uZJ-1" vertex="1">
          <mxGeometry x="124.51928020565553" y="83" width="76.86375321336762" height="40" as="geometry" />
        </mxCell>
        <mxCell id="qU3MLYZs_xLxiEu93uZJ-4" value="Address" style="ellipse;whiteSpace=wrap;html=1;align=center;" parent="qU3MLYZs_xLxiEu93uZJ-1" vertex="1">
          <mxGeometry y="92" width="76.86375321336762" height="40" as="geometry" />
        </mxCell>
        <mxCell id="qU3MLYZs_xLxiEu93uZJ-5" value="Phone" style="ellipse;shape=doubleEllipse;margin=3;whiteSpace=wrap;html=1;align=center;" parent="qU3MLYZs_xLxiEu93uZJ-1" vertex="1">
          <mxGeometry x="222.1362467866324" y="28" width="76.86375321336762" height="40" as="geometry" />
        </mxCell>
        <mxCell id="qU3MLYZs_xLxiEu93uZJ-6" value="" style="endArrow=none;html=1;rounded=0;exitX=0.99;exitY=0.394;exitDx=0;exitDy=0;exitPerimeter=0;" parent="qU3MLYZs_xLxiEu93uZJ-1" source="qU3MLYZs_xLxiEu93uZJ-4" target="qU3MLYZs_xLxiEu93uZJ-2" edge="1">
          <mxGeometry width="50" height="50" relative="1" as="geometry">
            <mxPoint x="132.2056555269923" y="48" as="sourcePoint" />
            <mxPoint x="170.6375321336761" y="-2" as="targetPoint" />
          </mxGeometry>
        </mxCell>
        <mxCell id="qU3MLYZs_xLxiEu93uZJ-7" value="" style="endArrow=none;html=1;rounded=0;entryX=0.25;entryY=0;entryDx=0;entryDy=0;exitX=0.771;exitY=0.917;exitDx=0;exitDy=0;exitPerimeter=0;" parent="qU3MLYZs_xLxiEu93uZJ-1" source="qU3MLYZs_xLxiEu93uZJ-10" target="qU3MLYZs_xLxiEu93uZJ-2" edge="1">
          <mxGeometry width="50" height="50" relative="1" as="geometry">
            <mxPoint x="118.4880218257913" y="41.05938976961704" as="sourcePoint" />
            <mxPoint x="130" y="87" as="targetPoint" />
          </mxGeometry>
        </mxCell>
        <mxCell id="qU3MLYZs_xLxiEu93uZJ-9" value="" style="endArrow=none;html=1;rounded=0;entryX=0.068;entryY=0.77;entryDx=0;entryDy=0;entryPerimeter=0;exitX=0.928;exitY=0.001;exitDx=0;exitDy=0;exitPerimeter=0;" parent="qU3MLYZs_xLxiEu93uZJ-1" source="qU3MLYZs_xLxiEu93uZJ-2" target="qU3MLYZs_xLxiEu93uZJ-5" edge="1">
          <mxGeometry width="50" height="50" relative="1" as="geometry">
            <mxPoint x="193.69665809768637" y="91" as="sourcePoint" />
            <mxPoint x="229.82262210796918" y="78" as="targetPoint" />
          </mxGeometry>
        </mxCell>
        <mxCell id="qU3MLYZs_xLxiEu93uZJ-10" value="CID" style="ellipse;whiteSpace=wrap;html=1;align=center;fontStyle=4;" parent="qU3MLYZs_xLxiEu93uZJ-1" vertex="1">
          <mxGeometry x="44" y="6" width="100" height="40" as="geometry" />
        </mxCell>
        <mxCell id="qU3MLYZs_xLxiEu93uZJ-60" value="Email" style="ellipse;whiteSpace=wrap;html=1;align=center;" parent="qU3MLYZs_xLxiEu93uZJ-1" vertex="1">
          <mxGeometry x="-20" y="40" width="76.86375321336762" height="40" as="geometry" />
        </mxCell>
        <mxCell id="qU3MLYZs_xLxiEu93uZJ-61" value="" style="endArrow=none;html=1;rounded=0;exitX=1;exitY=0.5;exitDx=0;exitDy=0;entryX=0;entryY=0.25;entryDx=0;entryDy=0;" parent="qU3MLYZs_xLxiEu93uZJ-1" source="qU3MLYZs_xLxiEu93uZJ-60" target="qU3MLYZs_xLxiEu93uZJ-2" edge="1">
          <mxGeometry width="50" height="50" relative="1" as="geometry">
            <mxPoint x="122.20565552699236" y="2" as="sourcePoint" />
            <mxPoint x="115" y="59" as="targetPoint" />
          </mxGeometry>
        </mxCell>
        <mxCell id="qU3MLYZs_xLxiEu93uZJ-12" value="" style="group;rotation=0;" parent="1" vertex="1" connectable="0">
          <mxGeometry x="-784" y="410" width="299" height="132" as="geometry" />
        </mxCell>
        <mxCell id="qU3MLYZs_xLxiEu93uZJ-13" value="Vehicle" style="whiteSpace=wrap;html=1;align=center;rotation=0;" parent="qU3MLYZs_xLxiEu93uZJ-12" vertex="1">
          <mxGeometry x="124" y="83" width="76.86375321336762" height="40" as="geometry" />
        </mxCell>
        <mxCell id="qU3MLYZs_xLxiEu93uZJ-15" value="V_Number" style="ellipse;whiteSpace=wrap;html=1;align=center;rotation=0;" parent="qU3MLYZs_xLxiEu93uZJ-12" vertex="1">
          <mxGeometry y="92" width="76.86375321336762" height="40" as="geometry" />
        </mxCell>
        <mxCell id="qU3MLYZs_xLxiEu93uZJ-17" value="" style="endArrow=none;html=1;rounded=0;exitX=0.99;exitY=0.394;exitDx=0;exitDy=0;exitPerimeter=0;" parent="qU3MLYZs_xLxiEu93uZJ-12" source="qU3MLYZs_xLxiEu93uZJ-15" target="qU3MLYZs_xLxiEu93uZJ-13" edge="1">
          <mxGeometry width="50" height="50" relative="1" as="geometry">
            <mxPoint x="132" y="48" as="sourcePoint" />
            <mxPoint x="171" y="-2" as="targetPoint" />
          </mxGeometry>
        </mxCell>
        <mxCell id="qU3MLYZs_xLxiEu93uZJ-18" value="" style="endArrow=none;html=1;rounded=0;entryX=0;entryY=0.25;entryDx=0;entryDy=0;exitX=0.771;exitY=0.917;exitDx=0;exitDy=0;exitPerimeter=0;" parent="qU3MLYZs_xLxiEu93uZJ-12" source="qU3MLYZs_xLxiEu93uZJ-21" target="qU3MLYZs_xLxiEu93uZJ-13" edge="1">
          <mxGeometry width="50" height="50" relative="1" as="geometry">
            <mxPoint x="119" y="41" as="sourcePoint" />
            <mxPoint x="130" y="87" as="targetPoint" />
          </mxGeometry>
        </mxCell>
        <mxCell id="qU3MLYZs_xLxiEu93uZJ-21" value="V_Owner" style="ellipse;whiteSpace=wrap;html=1;align=center;fontStyle=4;rotation=0;" parent="qU3MLYZs_xLxiEu93uZJ-12" vertex="1">
          <mxGeometry x="-11.57" y="20" width="100" height="40" as="geometry" />
        </mxCell>
        <mxCell id="qU3MLYZs_xLxiEu93uZJ-20" value="" style="endArrow=none;html=1;rounded=0;exitX=0;exitY=1;exitDx=0;exitDy=0;entryX=0.5;entryY=0;entryDx=0;entryDy=0;" parent="1" source="qU3MLYZs_xLxiEu93uZJ-13" target="qU3MLYZs_xLxiEu93uZJ-22" edge="1">
          <mxGeometry width="50" height="50" relative="1" as="geometry">
            <mxPoint x="-586" y="501" as="sourcePoint" />
            <mxPoint x="-686.6476068191423" y="571.5687736436678" as="targetPoint" />
          </mxGeometry>
        </mxCell>
        <mxCell id="qU3MLYZs_xLxiEu93uZJ-14" value="Name" style="ellipse;whiteSpace=wrap;html=1;align=center;rotation=0;" parent="1" vertex="1">
          <mxGeometry x="-656" y="580" width="76.86375321336762" height="40" as="geometry" />
        </mxCell>
        <mxCell id="qU3MLYZs_xLxiEu93uZJ-19" value="" style="endArrow=none;html=1;rounded=0;exitX=0.5;exitY=1;exitDx=0;exitDy=0;entryX=0.5;entryY=0;entryDx=0;entryDy=0;" parent="1" source="qU3MLYZs_xLxiEu93uZJ-13" target="qU3MLYZs_xLxiEu93uZJ-14" edge="1">
          <mxGeometry width="50" height="50" relative="1" as="geometry">
            <mxPoint x="-639" y="473" as="sourcePoint" />
            <mxPoint x="-610" y="600" as="targetPoint" />
          </mxGeometry>
        </mxCell>
        <mxCell id="qU3MLYZs_xLxiEu93uZJ-22" value="Type" style="ellipse;whiteSpace=wrap;html=1;align=center;rotation=0;" parent="1" vertex="1">
          <mxGeometry x="-760" y="560" width="76.86375321336762" height="40" as="geometry" />
        </mxCell>
        <mxCell id="qU3MLYZs_xLxiEu93uZJ-23" value="owns" style="rhombus;whiteSpace=wrap;html=1;" parent="1" vertex="1">
          <mxGeometry x="-659" y="320" width="80" height="80" as="geometry" />
        </mxCell>
        <mxCell id="qU3MLYZs_xLxiEu93uZJ-31" value="" style="group" parent="1" vertex="1" connectable="0">
          <mxGeometry x="-390" y="110" width="299" height="132" as="geometry" />
        </mxCell>
        <mxCell id="qU3MLYZs_xLxiEu93uZJ-32" value="Parking Slot" style="whiteSpace=wrap;html=1;align=center;" parent="qU3MLYZs_xLxiEu93uZJ-31" vertex="1">
          <mxGeometry x="124.51928020565553" y="83" width="76.86375321336762" height="40" as="geometry" />
        </mxCell>
        <mxCell id="qU3MLYZs_xLxiEu93uZJ-33" value="Name" style="ellipse;whiteSpace=wrap;html=1;align=center;" parent="qU3MLYZs_xLxiEu93uZJ-31" vertex="1">
          <mxGeometry x="222.13886889460156" y="20" width="76.86375321336762" height="40" as="geometry" />
        </mxCell>
        <mxCell id="qU3MLYZs_xLxiEu93uZJ-37" value="" style="endArrow=none;html=1;rounded=0;entryX=0.25;entryY=0;entryDx=0;entryDy=0;exitX=0.5;exitY=1;exitDx=0;exitDy=0;" parent="qU3MLYZs_xLxiEu93uZJ-31" source="qU3MLYZs_xLxiEu93uZJ-40" target="qU3MLYZs_xLxiEu93uZJ-32" edge="1">
          <mxGeometry width="50" height="50" relative="1" as="geometry">
            <mxPoint x="118.4880218257913" y="41.05938976961704" as="sourcePoint" />
            <mxPoint x="130" y="87" as="targetPoint" />
          </mxGeometry>
        </mxCell>
        <mxCell id="qU3MLYZs_xLxiEu93uZJ-38" value="" style="endArrow=none;html=1;rounded=0;exitX=1;exitY=0;exitDx=0;exitDy=0;entryX=0.201;entryY=0.891;entryDx=0;entryDy=0;entryPerimeter=0;" parent="qU3MLYZs_xLxiEu93uZJ-31" source="qU3MLYZs_xLxiEu93uZJ-32" target="qU3MLYZs_xLxiEu93uZJ-33" edge="1">
          <mxGeometry width="50" height="50" relative="1" as="geometry">
            <mxPoint x="140.66066838046274" y="63" as="sourcePoint" />
            <mxPoint x="189.08483290488434" y="65" as="targetPoint" />
          </mxGeometry>
        </mxCell>
        <mxCell id="qU3MLYZs_xLxiEu93uZJ-40" value="Slot_ID" style="ellipse;whiteSpace=wrap;html=1;align=center;fontStyle=4;" parent="qU3MLYZs_xLxiEu93uZJ-31" vertex="1">
          <mxGeometry x="112.95" width="100" height="40" as="geometry" />
        </mxCell>
        <mxCell id="qU3MLYZs_xLxiEu93uZJ-34" value="Location" style="ellipse;whiteSpace=wrap;html=1;align=center;" parent="1" vertex="1">
          <mxGeometry x="-132" y="192" width="76.86375321336762" height="40" as="geometry" />
        </mxCell>
        <mxCell id="qU3MLYZs_xLxiEu93uZJ-36" value="" style="endArrow=none;html=1;rounded=0;exitX=0;exitY=0.5;exitDx=0;exitDy=0;entryX=1;entryY=0.5;entryDx=0;entryDy=0;" parent="1" source="qU3MLYZs_xLxiEu93uZJ-34" target="qU3MLYZs_xLxiEu93uZJ-32" edge="1">
          <mxGeometry width="50" height="50" relative="1" as="geometry">
            <mxPoint x="-130.00000000000227" y="212" as="sourcePoint" />
            <mxPoint x="-208.61696658097708" y="212" as="targetPoint" />
          </mxGeometry>
        </mxCell>
        <mxCell id="qU3MLYZs_xLxiEu93uZJ-41" value="" style="group" parent="1" vertex="1" connectable="0">
          <mxGeometry x="-390" y="410" width="299" height="132" as="geometry" />
        </mxCell>
        <mxCell id="qU3MLYZs_xLxiEu93uZJ-42" value="System Admin" style="whiteSpace=wrap;html=1;align=center;" parent="qU3MLYZs_xLxiEu93uZJ-41" vertex="1">
          <mxGeometry x="124.51928020565553" y="83" width="76.86375321336762" height="40" as="geometry" />
        </mxCell>
        <mxCell id="qU3MLYZs_xLxiEu93uZJ-44" value="Address" style="ellipse;whiteSpace=wrap;html=1;align=center;" parent="1" vertex="1">
          <mxGeometry x="-110" y="542" width="76.86375321336762" height="40" as="geometry" />
        </mxCell>
        <mxCell id="qU3MLYZs_xLxiEu93uZJ-46" value="" style="endArrow=none;html=1;rounded=0;exitX=0;exitY=0;exitDx=0;exitDy=0;" parent="1" source="qU3MLYZs_xLxiEu93uZJ-44" target="qU3MLYZs_xLxiEu93uZJ-42" edge="1">
          <mxGeometry width="50" height="50" relative="1" as="geometry">
            <mxPoint x="-257.7943444730077" y="458" as="sourcePoint" />
            <mxPoint x="-219.3624678663239" y="408" as="targetPoint" />
          </mxGeometry>
        </mxCell>
        <mxCell id="qU3MLYZs_xLxiEu93uZJ-45" value="Phone" style="ellipse;shape=doubleEllipse;margin=3;whiteSpace=wrap;html=1;align=center;" parent="1" vertex="1">
          <mxGeometry x="-186.8637532133676" y="570" width="76.86375321336762" height="40" as="geometry" />
        </mxCell>
        <mxCell id="qU3MLYZs_xLxiEu93uZJ-49" value="" style="endArrow=none;html=1;rounded=0;exitX=0.75;exitY=1;exitDx=0;exitDy=0;" parent="1" source="qU3MLYZs_xLxiEu93uZJ-42" target="qU3MLYZs_xLxiEu93uZJ-45" edge="1">
          <mxGeometry width="50" height="50" relative="1" as="geometry">
            <mxPoint x="-196.30334190231363" y="501" as="sourcePoint" />
            <mxPoint x="-160.17737789203082" y="488" as="targetPoint" />
          </mxGeometry>
        </mxCell>
        <mxCell id="qU3MLYZs_xLxiEu93uZJ-43" value="Name" style="ellipse;whiteSpace=wrap;html=1;align=center;" parent="1" vertex="1">
          <mxGeometry x="-120.00113110539843" y="490" width="76.86375321336762" height="40" as="geometry" />
        </mxCell>
        <mxCell id="qU3MLYZs_xLxiEu93uZJ-48" value="" style="endArrow=none;html=1;rounded=0;exitX=1;exitY=0.5;exitDx=0;exitDy=0;entryX=0;entryY=0.575;entryDx=0;entryDy=0;entryPerimeter=0;" parent="1" source="qU3MLYZs_xLxiEu93uZJ-42" target="qU3MLYZs_xLxiEu93uZJ-43" edge="1">
          <mxGeometry width="50" height="50" relative="1" as="geometry">
            <mxPoint x="-249.33933161953726" y="473" as="sourcePoint" />
            <mxPoint x="-200.91516709511566" y="475" as="targetPoint" />
          </mxGeometry>
        </mxCell>
        <mxCell id="qU3MLYZs_xLxiEu93uZJ-50" value="Admin_ID" style="ellipse;whiteSpace=wrap;html=1;align=center;fontStyle=4;" parent="1" vertex="1">
          <mxGeometry x="-290.5" y="580" width="100" height="40" as="geometry" />
        </mxCell>
        <mxCell id="qU3MLYZs_xLxiEu93uZJ-47" value="" style="endArrow=none;html=1;rounded=0;entryX=0.5;entryY=1;entryDx=0;entryDy=0;exitX=0.606;exitY=0.038;exitDx=0;exitDy=0;exitPerimeter=0;" parent="1" source="qU3MLYZs_xLxiEu93uZJ-50" target="qU3MLYZs_xLxiEu93uZJ-42" edge="1">
          <mxGeometry width="50" height="50" relative="1" as="geometry">
            <mxPoint x="-271.5119781742087" y="451.05938976961704" as="sourcePoint" />
            <mxPoint x="-260" y="497" as="targetPoint" />
          </mxGeometry>
        </mxCell>
        <mxCell id="qU3MLYZs_xLxiEu93uZJ-51" value="manages" style="rhombus;whiteSpace=wrap;html=1;" parent="1" vertex="1">
          <mxGeometry x="-266.86" y="320" width="80" height="80" as="geometry" />
        </mxCell>
        <mxCell id="qU3MLYZs_xLxiEu93uZJ-52" value="" style="fontSize=12;html=1;endArrow=ERone;endFill=1;rounded=0;entryX=0.5;entryY=1;entryDx=0;entryDy=0;exitX=0.5;exitY=0;exitDx=0;exitDy=0;" parent="1" source="qU3MLYZs_xLxiEu93uZJ-23" target="qU3MLYZs_xLxiEu93uZJ-2" edge="1">
          <mxGeometry width="100" height="100" relative="1" as="geometry">
            <mxPoint x="-360" y="420" as="sourcePoint" />
            <mxPoint x="-260" y="320" as="targetPoint" />
          </mxGeometry>
        </mxCell>
        <mxCell id="qU3MLYZs_xLxiEu93uZJ-54" value="" style="fontSize=12;html=1;endArrow=ERoneToMany;rounded=0;exitX=0.5;exitY=1;exitDx=0;exitDy=0;entryX=0.5;entryY=0;entryDx=0;entryDy=0;" parent="1" source="qU3MLYZs_xLxiEu93uZJ-23" target="qU3MLYZs_xLxiEu93uZJ-13" edge="1">
          <mxGeometry width="100" height="100" relative="1" as="geometry">
            <mxPoint x="-360" y="420" as="sourcePoint" />
            <mxPoint x="-260" y="320" as="targetPoint" />
          </mxGeometry>
        </mxCell>
        <mxCell id="qU3MLYZs_xLxiEu93uZJ-55" value="" style="fontSize=12;html=1;endArrow=ERone;endFill=1;rounded=0;entryX=0.5;entryY=0;entryDx=0;entryDy=0;" parent="1" source="qU3MLYZs_xLxiEu93uZJ-51" target="qU3MLYZs_xLxiEu93uZJ-42" edge="1">
          <mxGeometry width="100" height="100" relative="1" as="geometry">
            <mxPoint x="-609" y="330" as="sourcePoint" />
            <mxPoint x="-340" y="390" as="targetPoint" />
          </mxGeometry>
        </mxCell>
        <mxCell id="qU3MLYZs_xLxiEu93uZJ-56" value="" style="fontSize=12;html=1;endArrow=ERoneToMany;rounded=0;exitX=0.5;exitY=0;exitDx=0;exitDy=0;entryX=0.5;entryY=1;entryDx=0;entryDy=0;" parent="1" source="qU3MLYZs_xLxiEu93uZJ-51" target="qU3MLYZs_xLxiEu93uZJ-32" edge="1">
          <mxGeometry width="100" height="100" relative="1" as="geometry">
            <mxPoint x="-609" y="410" as="sourcePoint" />
            <mxPoint x="-612" y="503" as="targetPoint" />
          </mxGeometry>
        </mxCell>
        <mxCell id="qU3MLYZs_xLxiEu93uZJ-57" value="books" style="rhombus;whiteSpace=wrap;html=1;" parent="1" vertex="1">
          <mxGeometry x="-460" y="172" width="80" height="80" as="geometry" />
        </mxCell>
        <mxCell id="qU3MLYZs_xLxiEu93uZJ-58" value="" style="fontSize=12;html=1;endArrow=ERmandOne;rounded=0;exitX=0;exitY=0.5;exitDx=0;exitDy=0;entryX=1;entryY=0.5;entryDx=0;entryDy=0;" parent="1" source="qU3MLYZs_xLxiEu93uZJ-57" target="qU3MLYZs_xLxiEu93uZJ-2" edge="1">
          <mxGeometry width="100" height="100" relative="1" as="geometry">
            <mxPoint x="-360" y="420" as="sourcePoint" />
            <mxPoint x="-260" y="320" as="targetPoint" />
          </mxGeometry>
        </mxCell>
        <mxCell id="qU3MLYZs_xLxiEu93uZJ-59" value="" style="fontSize=12;html=1;endArrow=ERoneToMany;rounded=0;exitX=1;exitY=0.5;exitDx=0;exitDy=0;entryX=0;entryY=0.5;entryDx=0;entryDy=0;" parent="1" source="qU3MLYZs_xLxiEu93uZJ-57" target="qU3MLYZs_xLxiEu93uZJ-32" edge="1">
          <mxGeometry width="100" height="100" relative="1" as="geometry">
            <mxPoint x="-360" y="420" as="sourcePoint" />
            <mxPoint x="-260" y="320" as="targetPoint" />
          </mxGeometry>
        </mxCell>
        <mxCell id="qU3MLYZs_xLxiEu93uZJ-63" value="Payment" style="rounded=0;whiteSpace=wrap;html=1;" parent="1" vertex="1">
          <mxGeometry x="-429.57" y="-90" width="120" height="60" as="geometry" />
        </mxCell>
        <mxCell id="qU3MLYZs_xLxiEu93uZJ-64" value="PaymentID" style="ellipse;whiteSpace=wrap;html=1;align=center;fontStyle=4;" parent="1" vertex="1">
          <mxGeometry x="-276.86" y="-180" width="100" height="40" as="geometry" />
        </mxCell>
        <mxCell id="qU3MLYZs_xLxiEu93uZJ-65" value="Date" style="ellipse;whiteSpace=wrap;html=1;align=center;" parent="1" vertex="1">
          <mxGeometry x="-186.86113110539839" y="-130" width="76.86375321336762" height="40" as="geometry" />
        </mxCell>
        <mxCell id="qU3MLYZs_xLxiEu93uZJ-66" value="Amount" style="ellipse;whiteSpace=wrap;html=1;align=center;" parent="1" vertex="1">
          <mxGeometry x="-300.0011311053984" y="-10" width="76.86375321336762" height="40" as="geometry" />
        </mxCell>
        <mxCell id="qU3MLYZs_xLxiEu93uZJ-67" value="Platform_Used" style="ellipse;whiteSpace=wrap;html=1;align=center;" parent="1" vertex="1">
          <mxGeometry x="-238" y="-80.5" width="106" height="41" as="geometry" />
        </mxCell>
        <mxCell id="qU3MLYZs_xLxiEu93uZJ-69" value="" style="endArrow=none;html=1;rounded=0;entryX=1;entryY=0;entryDx=0;entryDy=0;exitX=0.5;exitY=1;exitDx=0;exitDy=0;" parent="1" source="qU3MLYZs_xLxiEu93uZJ-64" target="qU3MLYZs_xLxiEu93uZJ-63" edge="1">
          <mxGeometry width="50" height="50" relative="1" as="geometry">
            <mxPoint x="-330" y="-160" as="sourcePoint" />
            <mxPoint x="-370" y="-171" as="targetPoint" />
          </mxGeometry>
        </mxCell>
        <mxCell id="qU3MLYZs_xLxiEu93uZJ-70" value="" style="endArrow=none;html=1;rounded=0;exitX=0;exitY=0.5;exitDx=0;exitDy=0;" parent="1" source="qU3MLYZs_xLxiEu93uZJ-65" target="qU3MLYZs_xLxiEu93uZJ-63" edge="1">
          <mxGeometry width="50" height="50" relative="1" as="geometry">
            <mxPoint x="-420" y="-121" as="sourcePoint" />
            <mxPoint x="-370" y="-171" as="targetPoint" />
          </mxGeometry>
        </mxCell>
        <mxCell id="qU3MLYZs_xLxiEu93uZJ-71" value="" style="endArrow=none;html=1;rounded=0;entryX=0.75;entryY=1;entryDx=0;entryDy=0;exitX=0;exitY=0;exitDx=0;exitDy=0;" parent="1" source="qU3MLYZs_xLxiEu93uZJ-66" target="qU3MLYZs_xLxiEu93uZJ-63" edge="1">
          <mxGeometry width="50" height="50" relative="1" as="geometry">
            <mxPoint x="-420" y="-121" as="sourcePoint" />
            <mxPoint x="-370" y="-171" as="targetPoint" />
          </mxGeometry>
        </mxCell>
        <mxCell id="qU3MLYZs_xLxiEu93uZJ-72" value="" style="endArrow=none;html=1;rounded=0;entryX=1;entryY=0.75;entryDx=0;entryDy=0;exitX=0;exitY=0;exitDx=0;exitDy=0;" parent="1" source="qU3MLYZs_xLxiEu93uZJ-67" target="qU3MLYZs_xLxiEu93uZJ-63" edge="1">
          <mxGeometry width="50" height="50" relative="1" as="geometry">
            <mxPoint x="-420" y="-121" as="sourcePoint" />
            <mxPoint x="-370" y="-171" as="targetPoint" />
          </mxGeometry>
        </mxCell>
        <mxCell id="A2uMEDDRjoMaOISTng7e-1" value="has" style="rhombus;whiteSpace=wrap;html=1;" vertex="1" parent="1">
          <mxGeometry x="-477.5" y="340" width="80" height="80" as="geometry" />
        </mxCell>
        <mxCell id="A2uMEDDRjoMaOISTng7e-2" value="" style="fontSize=12;html=1;endArrow=ERone;endFill=1;rounded=0;entryX=0.25;entryY=1;entryDx=0;entryDy=0;exitX=0.5;exitY=0;exitDx=0;exitDy=0;edgeStyle=orthogonalEdgeStyle;" edge="1" parent="1" source="A2uMEDDRjoMaOISTng7e-1" target="qU3MLYZs_xLxiEu93uZJ-32">
          <mxGeometry width="100" height="100" relative="1" as="geometry">
            <mxPoint x="-502.07" y="329" as="sourcePoint" />
            <mxPoint x="-500.07" y="242" as="targetPoint" />
          </mxGeometry>
        </mxCell>
        <mxCell id="A2uMEDDRjoMaOISTng7e-3" value="" style="fontSize=12;html=1;endArrow=ERone;endFill=1;rounded=0;entryX=1;entryY=0.5;entryDx=0;entryDy=0;exitX=0.5;exitY=1;exitDx=0;exitDy=0;edgeStyle=orthogonalEdgeStyle;" edge="1" parent="1" source="A2uMEDDRjoMaOISTng7e-1" target="qU3MLYZs_xLxiEu93uZJ-13">
          <mxGeometry width="100" height="100" relative="1" as="geometry">
            <mxPoint x="-529.02" y="600" as="sourcePoint" />
            <mxPoint x="-397.02" y="443" as="targetPoint" />
          </mxGeometry>
        </mxCell>
        <mxCell id="qU3MLYZs_xLxiEu93uZJ-3" value="Name" style="ellipse;whiteSpace=wrap;html=1;align=center;" parent="1" vertex="1">
          <mxGeometry x="-780.0011311053985" y="280" width="76.86375321336762" height="40" as="geometry" />
        </mxCell>
        <mxCell id="qU3MLYZs_xLxiEu93uZJ-8" value="" style="endArrow=none;html=1;rounded=0;exitX=0;exitY=1;exitDx=0;exitDy=0;entryX=0.5;entryY=0;entryDx=0;entryDy=0;" parent="1" source="qU3MLYZs_xLxiEu93uZJ-2" target="qU3MLYZs_xLxiEu93uZJ-3" edge="1">
          <mxGeometry width="50" height="50" relative="1" as="geometry">
            <mxPoint x="-639.3393316195372" y="173" as="sourcePoint" />
            <mxPoint x="-590.9151670951156" y="175" as="targetPoint" />
          </mxGeometry>
        </mxCell>
        <mxCell id="A2uMEDDRjoMaOISTng7e-4" value="makes" style="rhombus;whiteSpace=wrap;html=1;" vertex="1" parent="1">
          <mxGeometry x="-637" width="80" height="80" as="geometry" />
        </mxCell>
        <mxCell id="A2uMEDDRjoMaOISTng7e-5" value="" style="fontSize=12;html=1;endArrow=ERoneToMany;rounded=0;exitX=0.5;exitY=0;exitDx=0;exitDy=0;entryX=0;entryY=0.5;entryDx=0;entryDy=0;edgeStyle=orthogonalEdgeStyle;" edge="1" parent="1" source="A2uMEDDRjoMaOISTng7e-4" target="qU3MLYZs_xLxiEu93uZJ-63">
          <mxGeometry width="100" height="100" relative="1" as="geometry">
            <mxPoint x="-600.6700000000001" y="-16.5" as="sourcePoint" />
            <mxPoint x="-600.6700000000001" y="-103.5" as="targetPoint" />
          </mxGeometry>
        </mxCell>
        <mxCell id="A2uMEDDRjoMaOISTng7e-6" value="" style="fontSize=12;html=1;endArrow=ERone;endFill=1;rounded=0;entryX=0.75;entryY=0;entryDx=0;entryDy=0;exitX=0.5;exitY=1;exitDx=0;exitDy=0;" edge="1" parent="1" source="A2uMEDDRjoMaOISTng7e-4" target="qU3MLYZs_xLxiEu93uZJ-2">
          <mxGeometry width="100" height="100" relative="1" as="geometry">
            <mxPoint x="-609" y="330" as="sourcePoint" />
            <mxPoint x="-607" y="243" as="targetPoint" />
          </mxGeometry>
        </mxCell>
      </root>
    </mxGraphModel>
  </diagram>
</mxfile>
